<?xml version="1.0" encoding="utf-8"?>
<!-- Generator: Adobe Illustrator 24.1.3, SVG Export Plug-In . SVG Version: 6.00 Build 0)  -->
<svg version="1.1" id="Layer_1" xmlns="http://www.w3.org/2000/svg" xmlns:xlink="http://www.w3.org/1999/xlink" x="0px" y="0px"
	 viewBox="0 0 61 61" style="enable-background:new 0 0 61 61;" xml:space="preserve">
<style type="text/css">
	.st0{fill:black;}
</style>
<g id="Group_33" transform="translate(-113 -61)">
	<path id="FontAwsome_circle_" class="st0" d="M143.5,61.5c-16.57,0-30,13.43-30,30s13.43,30,30,30s30-13.43,30-30
		C173.5,74.93,160.08,61.5,143.5,61.5C143.51,61.5,143.5,61.5,143.5,61.5z M143.5,115.69c-13.36,0-24.19-10.83-24.19-24.19
		s10.83-24.19,24.19-24.19s24.19,10.83,24.19,24.19c0,13.36-10.82,24.19-24.18,24.19C143.51,115.69,143.5,115.69,143.5,115.69z"/>
	<path id="FontAwsome_rocketchat_" class="st0" d="M154.47,82.41c-4.38-2.89-10.2-3.55-15.03-2.68c-3.3-3.38-8.42-4.24-12.65-2.13
		c0,0,4.16,3.53,3.48,6.63c-4.92,5.02-2.58,10.61,0,13.25c0.68,3.09-3.48,6.63-3.48,6.63c4.23,2.12,9.34,1.27,12.65-2.11
		c4.82,0.87,10.64,0.21,15.03-2.68C161.26,94.98,161.28,86.76,154.47,82.41L154.47,82.41z M143.53,99.29
		c-1.69,0-3.38-0.21-5.01-0.65l-1.13,1.09c-0.62,0.61-1.32,1.13-2.08,1.56c-0.92,0.46-1.92,0.75-2.94,0.84
		c0.06-0.1,0.11-0.2,0.16-0.3c1.07-1.67,1.4-3.7,0.91-5.62c-1.77-1.23-2.86-3.21-2.96-5.36c0-4.67,5.85-8.45,13.06-8.45
		s13.06,3.78,13.06,8.45S150.74,99.29,143.53,99.29z M137.26,92.86c-1.08,0.02-1.96-0.84-1.98-1.92c-0.02-1.08,0.84-1.96,1.92-1.98
		c1.08-0.02,1.96,0.84,1.98,1.92v0.03C139.19,91.98,138.34,92.85,137.26,92.86C137.27,92.86,137.27,92.86,137.26,92.86L137.26,92.86
		z M141.46,90.94c0-1.08,0.87-1.95,1.94-1.96c1.06,0,1.92,0.83,1.96,1.89v0.03c-0.01,1.08-0.9,1.94-1.97,1.93
		C142.34,92.82,141.49,91.99,141.46,90.94z M149.62,92.86c-1.08,0.02-1.96-0.84-1.98-1.92c-0.02-1.08,0.84-1.96,1.92-1.98
		s1.96,0.84,1.98,1.92c0,0,0,0,0,0v0.03c0.01,1.07-0.84,1.94-1.91,1.95C149.63,92.86,149.62,92.86,149.62,92.86L149.62,92.86z"/>
</g>
</svg>
