<?xml version="1.0" encoding="utf-8"?>
<!-- Generator: Adobe Illustrator 24.1.3, SVG Export Plug-In . SVG Version: 6.00 Build 0)  -->
<svg version="1.1" id="Layer_1" xmlns="http://www.w3.org/2000/svg" xmlns:xlink="http://www.w3.org/1999/xlink" x="0px" y="0px"
	 viewBox="0 0 61 61" style="enable-background:new 0 0 61 61;" xml:space="preserve">
<style type="text/css">
	.st0{fill:#8490F7;}
</style>
<path id="FontAwsome_user-astronaut_" class="st0" d="M11.75,26.75h1.58c4.13,9.48,15.16,13.82,24.64,9.69
	c4.34-1.89,7.8-5.35,9.69-9.69h1.58c1.04,0,1.88-0.84,1.88-1.88V13.63c0-1.03-0.84-1.87-1.88-1.88h-1.58
	C43.54,2.27,32.5-2.07,23.02,2.06c-4.34,1.89-7.8,5.35-9.69,9.69h-1.58c-1.03,0-1.87,0.84-1.88,1.88v11.24
	C9.87,25.91,10.71,26.75,11.75,26.75z M16.44,16.44c0-2.59,2.52-4.69,5.62-4.69h16.87c3.11,0,5.62,2.1,5.62,4.69v2.81
	c0,6.21-5.04,11.25-11.25,11.25h-5.62c-6.21,0-11.25-5.04-11.25-11.25L16.44,16.44z M24.87,24.87l1.41-4.22l4.22-1.41l-4.22-1.41
	l-1.41-4.22l-1.4,4.22l-4.22,1.41l4.22,1.41L24.87,24.87z M42.64,38.16c-7.39,4.78-16.89,4.78-24.28,0
	c-8,0.82-14.09,7.55-14.11,15.59v1.12c0,3.11,2.52,5.62,5.62,5.62h9.37V53c0-2.07,1.67-3.75,3.74-3.75c0,0,0,0,0.01,0h15
	c2.07,0,3.75,1.67,3.75,3.74c0,0,0,0,0,0.01v7.5h9.37c3.11,0,5.62-2.52,5.62-5.62v-1.12C56.73,45.71,50.64,38.98,42.64,38.16
	L42.64,38.16z M36.13,52.99c-1.04,0-1.88,0.84-1.88,1.87c0,1.04,0.84,1.88,1.87,1.88c1.03,0,1.87-0.83,1.88-1.87
	C38,53.84,37.16,53,36.13,52.99L36.13,52.99z M24.88,52.99c-1.03,0-1.87,0.84-1.88,1.88v5.63h3.75v-5.62
	C26.75,53.84,25.91,53,24.88,52.99L24.88,52.99z"/>
</svg>
