<?xml version="1.0" encoding="utf-8"?>
<!-- Generator: Adobe Illustrator 24.1.3, SVG Export Plug-In . SVG Version: 6.00 Build 0)  -->
<svg version="1.1" id="Layer_1" xmlns="http://www.w3.org/2000/svg" xmlns:xlink="http://www.w3.org/1999/xlink" x="0px" y="0px"
	 viewBox="0 0 61 61" style="enable-background:new 0 0 61 61;" xml:space="preserve">
<style type="text/css">
	.st0{fill:#8490F7;}
</style>
<path id="FontAwsome_meteor_" class="st0" d="M60.42,2.94c-1.36,4.55-4.03,13.11-7.2,22.03c0.82,0.25,1.57,0.47,2.18,0.66
	c1,0.3,1.56,1.36,1.25,2.35c-0.04,0.12-0.08,0.23-0.14,0.33c-2.6,4.97-9.7,17.94-16.73,25.17c-0.12,0.13-0.24,0.29-0.35,0.41
	c-8.99,8.88-23.47,8.79-32.34-0.2c-8.8-8.91-8.8-23.23,0-32.14c0.12-0.12,0.28-0.23,0.41-0.35C14.75,14.18,27.7,7.07,32.67,4.48
	c0.92-0.49,2.06-0.14,2.55,0.78c0.06,0.11,0.1,0.22,0.14,0.34c0.19,0.6,0.41,1.36,0.66,2.18c8.91-3.17,17.49-5.84,22.03-7.2
	c1-0.3,2.06,0.26,2.37,1.27C60.52,2.21,60.53,2.58,60.42,2.94z M37.96,38.06c0-8.3-6.73-15.02-15.02-15.02S7.91,29.77,7.91,38.06
	c0,8.3,6.73,15.02,15.02,15.02c0,0,0,0,0,0C31.23,53.09,37.96,46.36,37.96,38.06C37.96,38.06,37.96,38.06,37.96,38.06L37.96,38.06z
	 M22.93,34.31c0,2.07-1.68,3.75-3.76,3.75c-2.07,0-3.75-1.68-3.75-3.76c0-2.07,1.68-3.75,3.76-3.75c0.99,0,1.94,0.4,2.65,1.1
	C22.54,32.35,22.93,33.31,22.93,34.31z M26.69,43.7c0,1.04-0.84,1.88-1.88,1.88c-1.04,0-1.88-0.84-1.88-1.88
	c0-1.04,0.84-1.88,1.88-1.88C25.85,41.82,26.69,42.66,26.69,43.7L26.69,43.7z"/>
</svg>
