<?xml version="1.0" encoding="utf-8"?>
<!-- Generator: Adobe Illustrator 24.1.3, SVG Export Plug-In . SVG Version: 6.00 Build 0)  -->
<svg version="1.1" id="Layer_1" xmlns="http://www.w3.org/2000/svg" xmlns:xlink="http://www.w3.org/1999/xlink" x="0px" y="0px"
	 viewBox="0 0 77.15 60" style="enable-background:new 0 0 77.15 60;" xml:space="preserve">
<style type="text/css">
	.st0{fill:#0098DC;}
</style>
<path id="FontAwsome_mail-bulk_2" class="st0" d="M23.58,52.5c-3,0-6-2.62-7.5-3.75c-7.5-5.25-9.75-7.12-11.25-8.25v15.75
	c0,2.07,1.68,3.75,3.75,3.75l0,0h30c2.07,0,3.75-1.68,3.75-3.75l0,0V40.5c-1.5,1.12-3.75,3-11.25,8.25
	C29.58,49.88,26.58,52.5,23.58,52.5z M38.58,30h-30c-2.07,0-3.75,1.68-3.75,3.75l0,0v1.88c3,2.25,2.62,2.25,13.5,10.12
	c1.12,0.75,3.38,3,5.25,3s4.12-2.25,5.25-2.62c10.88-7.88,10.5-7.88,13.5-10.12v-2.25C42.33,31.68,40.65,30,38.58,30L38.58,30z
	 M68.58,18.75h-37.5c-2.07,0-3.75,1.68-3.75,3.75l0,0v3.75h11.25c3.86,0,7.09,2.93,7.47,6.78L46.08,33v15.75h22.5
	c2.07,0,3.75-1.68,3.75-3.75l0,0V22.5C72.33,20.43,70.65,18.75,68.58,18.75L68.58,18.75z M64.83,33.75h-7.5v-7.5h7.5V33.75z
	 M23.58,22.5c0-4.14,3.36-7.5,7.5-7.5h26.25V3.75c0-2.07-1.68-3.75-3.75-3.75h-37.5c-2.07,0-3.75,1.68-3.75,3.75v22.5h11.25V22.5z"
	/>
</svg>
