<?xml version="1.0" encoding="utf-8"?>
<!-- Generator: Adobe Illustrator 24.1.3, SVG Export Plug-In . SVG Version: 6.00 Build 0)  -->
<svg version="1.1" id="Layer_1" xmlns="http://www.w3.org/2000/svg" xmlns:xlink="http://www.w3.org/1999/xlink" x="0px" y="0px"
	 viewBox="0 0 61 61" style="enable-background:new 0 0 61 61;" xml:space="preserve">
<style type="text/css">
	.st0{fill:#8490F7;}
</style>
<path id="FontAwsome_space-shuttle_" class="st0" d="M56.06,26.02c-3.57-1.54-7.42-2.32-11.31-2.27H17.97
	c-0.43-0.59-0.96-1.09-1.57-1.5h19.35C21.98,19.41,21.07,9.5,9.5,9.5l0,0v12H8v-12c-2.49,0-4.5,2.69-4.5,6v6c-2.18,0-3,0.94-3,2.25
	v3.75c0,1.31,0.83,2.25,3,2.25v1.5c-2.17,0-3,0.94-3,2.25v3.75c0,1.31,0.83,2.25,3,2.25v6c0,3.31,2.01,6,4.5,6v-12h1.5v12l0,0
	c11.57,0,12.48-9.91,26.25-12.75H16.4c0.6-0.41,1.13-0.91,1.57-1.5h26.78c3.89,0.05,7.74-0.73,11.31-2.27
	c2.78-1.3,4.44-2.98,4.44-4.48C60.5,29,58.84,27.33,56.06,26.02z M46.25,34.25c-0.41,0-0.75-0.34-0.75-0.75l0,0v-6
	c0-0.41,0.34-0.75,0.75-0.75l0,0C49.24,26.75,49.24,34.25,46.25,34.25z"/>
</svg>
