<?xml version="1.0" encoding="utf-8"?>
<!-- Generator: Adobe Illustrator 24.1.3, SVG Export Plug-In . SVG Version: 6.00 Build 0)  -->
<svg version="1.1" id="Layer_1" xmlns="http://www.w3.org/2000/svg" xmlns:xlink="http://www.w3.org/1999/xlink" x="0px" y="0px"
	 viewBox="0 0 61 61" style="enable-background:new 0 0 61 61;" xml:space="preserve">
<style type="text/css">
	.st0{fill:#8490F7;}
</style>
<path id="FontAwsome_rocket_" class="st0" d="M59.67,2.76c-0.19-0.7-0.73-1.24-1.43-1.43c-3.18-0.64-6.42-0.91-9.66-0.81
	c-12.09,0-19.35,6.47-24.76,14.99H11.61c-2.09,0.11-3.99,1.28-5.02,3.1L0.79,30.19c-0.18,0.39-0.28,0.82-0.3,1.25
	c0,1.55,1.26,2.81,2.81,2.82c0,0,0,0,0,0h12.17l-2.63,2.63c-1.42,1.48-1.42,3.82,0,5.3l5.96,5.96c1.48,1.43,3.82,1.43,5.3,0
	l2.63-2.63v12.17c0,1.55,1.26,2.81,2.81,2.81c0.43-0.02,0.86-0.12,1.25-0.3l11.57-5.79c1.83-1.03,3-2.93,3.11-5.03V37.16
	c8.51-5.43,15-12.7,15-24.73C60.59,9.19,60.32,5.94,59.67,2.76z M45.49,20.2c-2.59,0-4.69-2.1-4.69-4.69c0-2.59,2.1-4.69,4.69-4.69
	c2.59,0,4.69,2.1,4.69,4.69S48.08,20.2,45.49,20.2L45.49,20.2z"/>
</svg>
