<?xml version="1.0" encoding="utf-8"?>
<!-- Generator: Adobe Illustrator 24.1.3, SVG Export Plug-In . SVG Version: 6.00 Build 0)  -->
<svg version="1.1" id="Layer_1" xmlns="http://www.w3.org/2000/svg" xmlns:xlink="http://www.w3.org/1999/xlink" x="0px" y="0px"
	 viewBox="0 0 61 61" style="enable-background:new 0 0 61 61;" xml:space="preserve">
<style type="text/css">
	.st0{fill:#8490F7;}
</style>
<path id="FontAwsome_satellite_" class="st0" d="M59.4,36.83L48.07,48.16c-1.46,1.45-3.82,1.45-5.27,0l-9.41-9.42l-1.16,1.16
	c2.87,6.32,2.64,13.62-0.63,19.75c-0.48,0.82-1.53,1.1-2.35,0.62c-0.14-0.08-0.26-0.18-0.37-0.29l-12.6-12.6l-2.08,2.09
	c0.1,0.29,0.17,0.6,0.19,0.91c0,2.07-1.68,3.75-3.75,3.75s-3.75-1.68-3.75-3.75c0-2.07,1.68-3.75,3.75-3.75
	c0.31,0.02,0.62,0.09,0.91,0.19l2.09-2.09L1.03,32.13c-0.68-0.66-0.7-1.75-0.04-2.43c0.11-0.11,0.23-0.21,0.37-0.29
	c6.13-3.27,13.43-3.5,19.75-0.63l1.15-1.15l-9.41-9.42c-1.45-1.46-1.45-3.82,0-5.29L24.17,1.59c0.7-0.7,1.65-1.09,2.64-1.09
	c0.99,0,1.94,0.39,2.65,1.09L38.87,11l5.6-5.61c1.54-1.54,4.03-1.54,5.57,0c0,0,0,0,0,0l5.56,5.57c1.54,1.54,1.54,4.03,0,5.57
	c0,0,0,0,0,0L50,22.13l9.41,9.42C60.86,33.01,60.86,35.37,59.4,36.83C59.41,36.83,59.4,36.83,59.4,36.83z M26.24,23.64l8.65-8.65
	l-8.08-8.07l-8.65,8.65L26.24,23.64z M54.1,34.19l-8.07-8.08l-8.65,8.65l8.08,8.07L54.1,34.19z"/>
</svg>
