<?xml version="1.0" encoding="utf-8"?>
<!-- Generator: Adobe Illustrator 24.1.3, SVG Export Plug-In . SVG Version: 6.00 Build 0)  -->
<svg version="1.1" id="Layer_1" xmlns="http://www.w3.org/2000/svg" xmlns:xlink="http://www.w3.org/1999/xlink" x="0px" y="0px"
	 viewBox="0 0 61 61" style="enable-background:new 0 0 61 61;" xml:space="preserve">
<style type="text/css">
	.st0{fill:#8490F7;}
</style>
<path id="FontAwsome_satellite-dish_" class="st0" d="M36.29,54.71c0.74,0.71,0.76,1.87,0.06,2.61c-0.12,0.13-0.26,0.23-0.41,0.32
	c-11.71,6.28-26.3,1.88-32.58-9.84c-3.81-7.1-3.81-15.64,0-22.74c0.52-0.88,1.66-1.18,2.55-0.65c0.14,0.08,0.27,0.18,0.38,0.3
	L19.98,38.4l3.21-3.21c-0.1-0.29-0.16-0.6-0.19-0.91c0-2.07,1.68-3.75,3.75-3.75s3.75,1.68,3.75,3.75c0,2.07-1.68,3.75-3.75,3.75
	c-0.31-0.02-0.62-0.08-0.91-0.19l-3.21,3.21L36.29,54.71z M60.49,36.01c0.06,1.04-0.74,1.93-1.78,1.99c-0.03,0-0.06,0-0.1,0h-3.76
	c-0.99,0-1.8-0.77-1.86-1.76C52.11,21.03,39.98,8.87,24.76,7.95C23.77,7.89,23,7.07,23,6.08v-3.7c0-1.04,0.85-1.88,1.89-1.88
	c0.03,0,0.07,0,0.1,0C44.16,1.54,59.46,16.85,60.49,36.01L60.49,36.01z M49.24,35.98c0.07,1.05-0.72,1.95-1.77,2.02
	c-0.04,0-0.08,0-0.12,0h-3.77c-0.97-0.01-1.78-0.75-1.86-1.72c-0.79-9.04-7.95-16.2-16.98-17.01C23.76,19.2,23,18.39,23,17.41v-3.77
	c0-1.04,0.85-1.89,1.89-1.89c0.05,0,0.09,0,0.14,0C37.96,12.77,48.23,23.05,49.24,35.98L49.24,35.98z"/>
</svg>
